<svg xmlns="http://www.w3.org/2000/svg" fill="none" viewBox="0 0 283 61" height="61" width="283">
  <path fill="currentColor" d="M141.332 30.012c0 12.26-7.53 19.982-19.343 19.982-11.812 0-19.343-7.722-19.343-19.982 0-12.26 7.53-19.982 19.343-19.982 11.811 0 19.343 7.722 19.343 19.982Zm-27.42-0.08c0 5.212 3.518 8.442 8.078 8.442 4.56 0 8.078-3.23 8.078-8.442 0-5.212-3.518-8.442-8.078-8.442-4.56 0-8.078 3.23-8.078 8.442Zm34.342-19.262h8.442v38.64h-8.442v-38.64Zm28.632 38.64h-8.204l-11.17-15.353v15.353h-8.442v-38.64h8.28l11.09 15.196v-15.196h8.442v38.64Zm34.694-19.342c0-5.726-3.87-8.718-9.61-8.718-4.56 0-7.882 2.39-9.014 5.37h-0.238v-4.64h-7.92v26.7h8.442v-14.84c0-3.518 1.95-5.568 5.134-5.568 2.828 0 4.282 1.872 4.282 5.33v15.078h8.442v-13.64Zm22.716-19.3h8.442v14.05h0.24c1.13-2.906 4.36-5.37 9.016-5.37 5.724 0 9.61 3.072 9.61 8.718v13.64h-8.442v-12.92c0-3.6-1.512-5.49-4.718-5.49-3.048 0-5.37 2.028-5.37 5.25v13.16h-8.36v-21.04Zm54.49 19.342c0 12.26-7.53 19.982-19.343 19.982-11.812 0-19.343-7.722-19.343-19.982 0-12.26 7.53-19.982 19.343-19.982 11.811 0 19.343 7.722 19.343 19.982Zm-27.42-0.08c0 5.212 3.518 8.442 8.078 8.442 4.56 0 8.078-3.23 8.078-8.442 0-5.212-3.518-8.442-8.078-8.442-4.56 0-8.078 3.23-8.078 8.442Zm34.42 19.342h8.28l11.09-15.194v15.194h8.443v-38.64h-8.443v15.352l-11.09-15.352h-8.28l12.898 17.58-13.056 21.06Zm27.77-38.64h15.43v7.35h-6.99v31.29h-8.442v-31.29h-6.99v-7.35Z M13.794 49.352V10.792h-5.25V5.54h16.218v5.252h-5.25v38.56h-5.718Zm31.13-38.56h-5.718v38.56h5.718v-38.56Zm-15.564 0h-5.718v38.56h5.718v-38.56Z M0 49.352V5.54h5.718v38.56h13.666v5.252H0Z m60.838 0l-15.28-32.928h6.23l12.16 26.172 12.16-26.172h6.23L66.556 49.354h-5.718Z" />
</svg> 